<svg xmlns="http://www.w3.org/2000/svg" fill="none" viewBox="0 0 26 26" height="26" width="26">
<path fill="white" d="M10.0939 3.60187C6.871 4.3305 4.34214 6.80736 3.56626 9.99529C3.142 11.7385 3.14588 13.5727 3.57014 15.3159C4.35814 18.5537 6.67613 21.2483 9.78568 22.5039L9.92122 22.5586C11.2668 23.1019 12.8083 22.4476 13.3605 21.1143C13.5124 20.7474 13.8743 20.504 14.2741 20.504H15.4915C18.8028 20.504 21.6833 18.2541 22.4605 15.0606C22.8465 13.4747 22.8465 11.8205 22.4605 10.2347L22.3586 9.81595C21.6095 6.73788 19.1678 4.34638 16.0559 3.64286L15.6188 3.54403C13.8847 3.15199 12.0839 3.15199 10.3498 3.54403L10.0939 3.60187ZM9.21044 9.06391C8.79359 9.06391 8.45568 9.39918 8.45568 9.81275C8.45568 10.2263 8.79359 10.5616 9.21044 10.5616H16.1291C16.546 10.5616 16.8839 10.2263 16.8839 9.81275C16.8839 9.39918 16.546 9.06391 16.1291 9.06391H9.21044ZM10.4684 12.8081C10.0515 12.8081 9.71362 13.1434 9.71362 13.5569C9.71362 13.9705 10.0515 14.3058 10.4684 14.3058H14.8712C15.288 14.3058 15.6259 13.9705 15.6259 13.5569C15.6259 13.1434 15.288 12.8081 14.8712 12.8081H10.4684Z" clip-rule="evenodd" fill-rule="evenodd"></path>
</svg>