<svg xmlns="http://www.w3.org/2000/svg" fill="none" viewBox="0 0 26 26" height="26" width="26">
<path fill="white" d="M3.62234 9.78223C3.12589 11.8987 3.12589 14.1013 3.62234 16.2178C4.33929 19.2742 6.72578 21.6607 9.78222 22.3777C11.8987 22.8741 14.1013 22.8741 16.2178 22.3777C19.2742 21.6607 21.6607 19.2742 22.3777 16.2178C22.8741 14.1013 22.8741 11.8987 22.3777 9.78223C21.6607 6.72578 19.2742 4.33928 16.2178 3.62234C14.1013 3.12589 11.8987 3.12589 9.78223 3.62234C6.72578 4.33928 4.33928 6.72578 3.62234 9.78223ZM13.8296 16.4742C13.8296 16.9038 13.4814 17.252 13.0518 17.252C12.6222 17.252 12.274 16.9038 12.274 16.4742C12.274 16.0447 12.6222 15.6964 13.0518 15.6964C13.4814 15.6964 13.8296 16.0447 13.8296 16.4742ZM11.5481 10.8222C11.5481 10.0204 12.1981 9.37035 13 9.37035C13.8018 9.37035 14.4519 10.0204 14.4519 10.8222V10.9481C14.4519 11.3665 14.2856 11.7678 13.9898 12.0637L12.56 13.4934C12.317 13.7364 12.317 14.1304 12.56 14.3734C12.803 14.6164 13.197 14.6164 13.44 14.3734L14.8697 12.9436C15.399 12.4144 15.6963 11.6965 15.6963 10.9481V10.8222C15.6963 9.33308 14.4891 8.12588 13 8.12588C11.5108 8.12588 10.3036 9.33308 10.3036 10.8222V11.3408C10.3036 11.6844 10.5822 11.963 10.9259 11.963C11.2695 11.963 11.5481 11.6844 11.5481 11.3408V10.8222Z" clip-rule="evenodd" fill-rule="evenodd"></path>
</svg>